<svg width="30" height="30" viewBox="0 0 30 30" fill="none" xmlns="http://www.w3.org/2000/svg">
<g id=".">
<path id="Vector" d="M10 21.25L15 26.25L20 21.25" stroke="white" stroke-width="2" stroke-linecap="round" stroke-linejoin="round"/>
<path id="Vector_2" d="M15 15V26.25" stroke="white" stroke-width="2" stroke-linecap="round" stroke-linejoin="round"/>
<path id="Vector_3" d="M26.1 22.6125C27.1868 21.8483 28.0017 20.7577 28.4266 19.4989C28.8515 18.2402 28.8643 16.8788 28.463 15.6123C28.0617 14.3458 27.2673 13.2401 26.1951 12.4557C25.1228 11.6713 23.8285 11.249 22.5 11.25H20.925C20.5491 9.78484 19.8456 8.42406 18.8677 7.2701C17.8897 6.11614 16.6627 5.19908 15.279 4.58794C13.8953 3.97681 12.3911 3.68753 10.8794 3.7419C9.36777 3.79626 7.88815 4.19284 6.55195 4.90178C5.21575 5.61073 4.05779 6.61356 3.16524 7.83479C2.2727 9.05601 1.66882 10.4638 1.39908 11.9522C1.12935 13.4406 1.20077 14.9707 1.60798 16.4275C2.01519 17.8843 2.74758 19.2297 3.75001 20.3625" stroke="white" stroke-width="2" stroke-linecap="round" stroke-linejoin="round"/>
</g>
</svg>
