<svg width="26" height="23" viewBox="0 0 26 23" fill="none" xmlns="http://www.w3.org/2000/svg">
<g id="&#240;&#159;&#166;&#134; icon &#34;Grid&#34;">
<path id="Vector" d="M8.9375 12.9375C10.2837 12.9375 11.375 13.9029 11.375 15.0938V20.8438C11.375 22.0346 10.2837 23 8.9375 23H2.4375C1.09131 23 0 22.0346 0 20.8438V15.0938C0 13.9029 1.09131 12.9375 2.4375 12.9375H8.9375ZM23.5625 12.9375C24.9087 12.9375 26 13.9029 26 15.0938V20.8438C26 22.0346 24.9087 23 23.5625 23H17.0625C15.7163 23 14.625 22.0346 14.625 20.8438V15.0938C14.625 13.9029 15.7163 12.9375 17.0625 12.9375H23.5625ZM8.9375 0C10.2837 0 11.375 0.965386 11.375 2.15625V7.90625C11.375 9.09711 10.2837 10.0625 8.9375 10.0625H2.4375C1.09131 10.0625 0 9.09711 0 7.90625V2.15625C0 0.965386 1.09131 0 2.4375 0H8.9375ZM23.5625 0C24.9087 0 26 0.965386 26 2.15625V7.90625C26 9.09711 24.9087 10.0625 23.5625 10.0625H17.0625C15.7163 10.0625 14.625 9.09711 14.625 7.90625V2.15625C14.625 0.965386 15.7163 0 17.0625 0H23.5625Z" fill="#212121"/>
</g>
</svg>
