<svg width="30" height="25" viewBox="0 0 30 25" fill="none" xmlns="http://www.w3.org/2000/svg">
<g id="&#240;&#159;&#166;&#134; icon &#34;Heart&#34;">
<path id="Vector" d="M13.8533 2.30292C10.674 -0.755488 5.53038 -0.770351 2.36479 2.27483C-0.800814 5.32001 -0.785364 10.2679 2.39398 13.3263L14.1632 24.6478C14.6513 25.1174 15.4428 25.1174 15.931 24.6478L27.639 13.3918C30.7972 10.3367 30.7873 5.40267 27.6073 2.34372C24.4223 -0.720163 19.2763 -0.735028 16.105 2.3156L14.9868 3.39333L13.8533 2.30292ZM25.8662 11.696L15.0471 22.0969L4.16182 11.6257C1.95644 9.50427 1.94575 6.07909 4.13262 3.97541C6.31948 1.87173 9.88011 1.88202 12.0855 4.0035L14.1089 5.94999C14.6055 6.42761 15.4134 6.41825 15.8978 5.92926L17.8729 4.01618C20.0654 1.90706 23.6284 1.91735 25.8395 4.04431C28.0454 6.16632 28.0523 9.58127 25.8662 11.696Z" fill="#212121"/>
</g>
</svg>
