<svg width="25" height="25" viewBox="0 0 25 25" fill="none" xmlns="http://www.w3.org/2000/svg">
<g id="&#240;&#159;&#166;&#134; icon &#34;Search&#34;">
<path id="Vector" d="M9.82143 0C15.2457 0 19.6429 4.3972 19.6429 9.82143C19.6429 12.2121 18.7887 14.4033 17.3689 16.1065L24.7385 23.4758C25.0872 23.8245 25.0872 24.3898 24.7385 24.7385C24.4285 25.0484 23.9474 25.0829 23.5995 24.8418L23.4758 24.7385L16.1065 17.3689C14.4033 18.7887 12.2121 19.6429 9.82143 19.6429C4.3972 19.6429 0 15.2457 0 9.82143C0 4.3972 4.3972 0 9.82143 0ZM9.82143 1.78571C5.38343 1.78571 1.78571 5.38343 1.78571 9.82143C1.78571 14.2594 5.38343 17.8571 9.82143 17.8571C14.2594 17.8571 17.8571 14.2594 17.8571 9.82143C17.8571 5.38343 14.2594 1.78571 9.82143 1.78571Z" fill="#212121"/>
</g>
</svg>
