<svg width="26" height="23" viewBox="0 0 26 23" fill="none" xmlns="http://www.w3.org/2000/svg">
<g id="lock">
<path id="Vector" d="M20.5833 10.5417H5.41667C4.22005 10.5417 3.25 11.3998 3.25 12.4584V19.1667C3.25 20.2252 4.22005 21.0834 5.41667 21.0834H20.5833C21.78 21.0834 22.75 20.2252 22.75 19.1667V12.4584C22.75 11.3998 21.78 10.5417 20.5833 10.5417Z" stroke="#333333" stroke-width="2" stroke-linecap="round" stroke-linejoin="round"/>
<path id="Vector_2" d="M7.58337 10.5417V6.70835C7.58337 5.43752 8.15406 4.21875 9.16988 3.32013C10.1857 2.42152 11.5635 1.91669 13 1.91669C14.4366 1.91669 15.8144 2.42152 16.8302 3.32013C17.846 4.21875 18.4167 5.43752 18.4167 6.70835V10.5417" stroke="#333333" stroke-width="2" stroke-linecap="round" stroke-linejoin="round"/>
</g>
</svg>
