<svg width="26" height="28" viewBox="0 0 26 28" fill="none" xmlns="http://www.w3.org/2000/svg">
<g id=".">
<g id="&#240;&#159;&#166;&#134; icon &#34;Book Open&#34;">
<path id="Vector" d="M5.6602 4.69156V5.38312H3.65625C3.29382 5.38312 3 5.69275 3 6.07468V24.0553C3 24.4371 3.29382 24.7468 3.65625 24.7468H23.3438C23.7061 24.7468 24 24.4371 24 24.0553V6.07468C24 5.69275 23.7061 5.38312 23.3438 5.38312H21.3398V4.69156C21.3398 4.30963 21.046 4 20.6836 4H16.7092C15.4722 4 14.3132 4.56005 13.5 5.50788C12.6867 4.56005 11.5279 4 10.2909 4H6.31645C5.95402 4 5.6602 4.30963 5.6602 4.69156ZM20.0273 6.02511C20.0261 6.04149 20.0256 6.05802 20.0256 6.07468C20.0256 6.09135 20.0261 6.10788 20.0273 6.12425V20.5161H16.939C15.9092 20.5161 14.9347 20.891 14.1562 21.5442V6.87536C14.7158 5.9456 15.6772 5.38312 16.7092 5.38312H20.0273V6.02511ZM21.3398 6.76624H22.6875V23.3637H14.3229C14.9155 22.4519 15.8905 21.8993 16.939 21.8993H20.6836C21.046 21.8993 21.3398 21.5896 21.3398 21.2077V6.76624ZM10.0609 21.8993C11.1095 21.8993 12.0844 22.4519 12.677 23.3637H4.3125V6.76624H5.6602V21.2077C5.6602 21.5896 5.95402 21.8993 6.31645 21.8993H10.0609ZM6.9727 20.5161V6.12424C6.9738 6.10788 6.97437 6.09135 6.97437 6.07468C6.97437 6.05802 6.9738 6.04149 6.9727 6.02513V5.38312H10.2909C11.3228 5.38312 12.2843 5.9456 12.8438 6.87536V21.5442C12.0653 20.891 11.0908 20.5161 10.0609 20.5161H6.9727Z" fill="#212121"/>
</g>
</g>
</svg>
