<svg width="35" height="35" viewBox="0 0 35 35" fill="none" xmlns="http://www.w3.org/2000/svg">
<g id=".">
<path id="Vector" d="M17 30C16.5368 29.9995 16.0845 29.8731 15.702 29.6374C10.0347 26.1641 7.58079 23.7826 6.22726 22.2936C3.3428 19.1198 1.96186 15.8613 2.0008 12.3327C2.04623 8.28906 5.63955 5 10.011 5C13.1896 5 15.3912 6.61654 16.6733 7.96289C16.714 8.00511 16.7641 8.03896 16.8205 8.06217C16.8768 8.08537 16.9381 8.09737 17 8.09737C17.0619 8.09737 17.1232 8.08537 17.1795 8.06217C17.2359 8.03896 17.2861 8.00511 17.3267 7.96289C18.6088 6.61523 20.8104 5 23.9891 5C28.3605 5 31.9538 8.28906 31.9992 12.3333C32.0381 15.8626 30.6558 19.1211 27.7727 22.2943C26.4192 23.7832 23.9653 26.1647 18.298 29.638C17.9154 29.8735 17.4631 29.9997 17 30Z" fill="#1C202C"/>
</g>
</svg>
