<svg width="27" height="27" viewBox="0 0 27 27" fill="none" xmlns="http://www.w3.org/2000/svg">
<g id="&#240;&#159;&#166;&#134; icon &#34;Calendar&#34;">
<path id="Vector" d="M21.6282 0C24.121 0 26.1608 1.94002 26.3199 4.39263L26.3299 4.70178V21.6282C26.3299 24.121 24.3899 26.1608 21.9373 26.3199L21.6282 26.3299H4.70178C2.20893 26.3299 0.169191 24.3899 0.010001 21.9373L0 21.6282V4.70178C0 2.20893 1.94002 0.169191 4.39263 0.010001L4.70178 0H21.6282ZM24.4492 7.52284H1.88071V21.6282C1.88071 23.0945 2.99952 24.2996 4.43009 24.4363L4.70178 24.4492H21.6282C23.0945 24.4492 24.2996 23.3304 24.4363 21.8998L24.4492 21.6282V7.52284ZM7.52284 16.9264C8.56152 16.9264 9.40355 17.7684 9.40355 18.8071C9.40355 19.8458 8.56152 20.6878 7.52284 20.6878C6.48416 20.6878 5.64213 19.8458 5.64213 18.8071C5.64213 17.7684 6.48416 16.9264 7.52284 16.9264ZM13.165 16.9264C14.2037 16.9264 15.0457 17.7684 15.0457 18.8071C15.0457 19.8458 14.2037 20.6878 13.165 20.6878C12.1263 20.6878 11.2843 19.8458 11.2843 18.8071C11.2843 17.7684 12.1263 16.9264 13.165 16.9264ZM7.52284 11.2843C8.56152 11.2843 9.40355 12.1263 9.40355 13.165C9.40355 14.2037 8.56152 15.0457 7.52284 15.0457C6.48416 15.0457 5.64213 14.2037 5.64213 13.165C5.64213 12.1263 6.48416 11.2843 7.52284 11.2843ZM13.165 11.2843C14.2037 11.2843 15.0457 12.1263 15.0457 13.165C15.0457 14.2037 14.2037 15.0457 13.165 15.0457C12.1263 15.0457 11.2843 14.2037 11.2843 13.165C11.2843 12.1263 12.1263 11.2843 13.165 11.2843ZM18.8071 11.2843C19.8458 11.2843 20.6878 12.1263 20.6878 13.165C20.6878 14.2037 19.8458 15.0457 18.8071 15.0457C17.7684 15.0457 16.9264 14.2037 16.9264 13.165C16.9264 12.1263 17.7684 11.2843 18.8071 11.2843ZM21.6282 1.88071H4.70178C3.23539 1.88071 2.03032 2.99952 1.89362 4.43009L1.88071 4.70178V5.64213H24.4492V4.70178C24.4492 3.23539 23.3304 2.03032 21.8998 1.89362L21.6282 1.88071Z" fill="#212121"/>
</g>
</svg>
