<svg width="20" height="15" viewBox="0 0 20 15" fill="none" xmlns="http://www.w3.org/2000/svg">
<g id="&#240;&#159;&#166;&#134; icon &#34;Filter&#34;">
<path id="Vector" d="M6.42857 13.3333H13.5714C13.9659 13.3333 14.2857 13.7064 14.2857 14.1667C14.2857 14.5758 14.033 14.916 13.6998 14.9866L13.5714 15H6.42857C6.03408 15 5.71429 14.6269 5.71429 14.1667C5.71429 13.7576 5.96696 13.4173 6.30018 13.3468L6.42857 13.3333ZM3.57143 6.66667H16.4286C16.8231 6.66667 17.1429 7.03976 17.1429 7.5C17.1429 7.9091 16.8902 8.24935 16.557 8.31991L16.4286 8.33333H3.57143C3.17694 8.33333 2.85714 7.96024 2.85714 7.5C2.85714 7.0909 3.10982 6.75065 3.44303 6.68009L3.57143 6.66667ZM0.714286 0H19.2857C19.6802 0 20 0.373096 20 0.833333C20 1.24243 19.7473 1.58268 19.4141 1.65324L19.2857 1.66667H0.714286C0.319797 1.66667 0 1.29357 0 0.833333C0 0.424234 0.252679 0.0839861 0.585892 0.0134261L0.714286 0Z" fill="#212121"/>
</g>
</svg>
