<svg width="35" height="35" viewBox="0 0 35 35" fill="none" xmlns="http://www.w3.org/2000/svg">
<g id=".">
<path id="Vector" d="M10.9375 9.29688V16.4062H21.4218L17.8206 12.8044C17.6241 12.5976 17.5162 12.3223 17.5199 12.037C17.5235 11.7518 17.6385 11.4793 17.8402 11.2777C18.0418 11.076 18.3143 10.961 18.5995 10.9574C18.8848 10.9537 19.1601 11.0616 19.3669 11.2581L24.8356 16.7269C25.0406 16.932 25.1557 17.21 25.1557 17.5C25.1557 17.79 25.0406 18.068 24.8356 18.2731L19.3669 23.7419C19.1601 23.9384 18.8848 24.0463 18.5995 24.0426C18.3143 24.039 18.0418 23.924 17.8402 23.7223C17.6385 23.5207 17.5235 23.2482 17.5199 22.963C17.5162 22.6777 17.6241 22.4024 17.8206 22.1956L21.4218 18.5938H10.9375V25.7031C10.9386 26.7181 11.3423 27.6911 12.0599 28.4088C12.7776 29.1265 13.7507 29.5302 14.7656 29.5312H28.9844C29.9993 29.5302 30.9724 29.1265 31.6901 28.4088C32.4077 27.6911 32.8114 26.7181 32.8125 25.7031V9.29688C32.8114 8.28193 32.4077 7.30886 31.6901 6.59118C30.9724 5.8735 29.9993 5.46984 28.9844 5.46875H14.7656C13.7507 5.46984 12.7776 5.8735 12.0599 6.59118C11.3423 7.30886 10.9386 8.28193 10.9375 9.29688ZM3.28125 16.4062C2.99117 16.4062 2.71297 16.5215 2.50785 16.7266C2.30273 16.9317 2.1875 17.2099 2.1875 17.5C2.1875 17.7901 2.30273 18.0683 2.50785 18.2734C2.71297 18.4785 2.99117 18.5938 3.28125 18.5938H10.9375V16.4062H3.28125Z" fill="#1C202C"/>
</g>
</svg>
