<svg width="28" height="23" viewBox="0 0 28 23" fill="none" xmlns="http://www.w3.org/2000/svg">
<g id="&#240;&#159;&#166;&#134; icon &#34;Hat Graduation&#34;">
<g id="Group">
<path id="Vector" d="M11.2641 0.783757C12.9264 -0.261281 15.0744 -0.261243 16.7366 0.783814L27.5472 7.58046C27.8274 7.75657 27.9972 8.05573 28 8.37751C28.0026 8.6993 27.8378 9.00104 27.5606 9.18142L16.8032 16.1831C15.1103 17.285 12.8904 17.285 11.1975 16.1833L2 10.1971V16.2695C2 16.8004 1.55228 17.231 0.999999 17.231C0.44772 17.231 0 16.8004 0 16.2695V8.57746C0 8.54491 0.00168006 8.51274 0.00496005 8.48102C0.00142006 8.44683 -0.000255945 8.4123 4.00543e-05 8.37751C0.00270005 8.05573 0.17264 7.75655 0.45276 7.58044L11.2641 0.783757Z" fill="#212121"/>
<path id="Vector_2" d="M4.00002 18.1925V13.8209L10.0764 17.7758C12.4465 19.3182 15.5544 19.3182 17.9244 17.7756L24 13.8211V18.1925C24 18.4207 23.9156 18.6413 23.762 18.8152C23.762 18.8152 23.762 18.8152 23 18.1925L23.762 18.8152L23.7592 18.8182L23.7554 18.8227L23.7436 18.8357L23.705 18.8777C23.6726 18.9123 23.6268 18.9603 23.568 19.02C23.4504 19.139 23.2802 19.3042 23.0596 19.4999C22.6192 19.8909 21.974 20.4076 21.1422 20.9235C19.481 21.9541 17.0447 23 14.0002 23C10.9557 23 8.51929 21.9541 6.85799 20.9235C6.02625 20.4076 5.38103 19.8909 4.94053 19.4999C4.71995 19.3042 4.54969 19.139 4.43207 19.02C4.37323 18.9605 4.32746 18.9125 4.29506 18.8777L4.25648 18.8357L4.24475 18.8227L4.24079 18.8182L4.23928 18.8165L5.00001 18.1925C4.2381 18.8153 4.23928 18.8165 4.23928 18.8165C4.0856 18.6427 4.00002 18.4207 4.00002 18.1925Z" fill="#212121"/>
</g>
</g>
</svg>
